<svg width="94" height="45" viewBox="0 0 94 45" fill="none" xmlns="http://www.w3.org/2000/svg">
<path d="M93.9836 29.3734C93.8925 28.5929 93.4179 27.91 92.7151 27.5459L92.621 27.5022C92.4043 27.4124 87.2817 25.302 84.1425 24.8654C83.5473 24.7823 82.921 24.8981 82.3471 25.1829L71.8046 28.884C69.7479 27.836 61.95 23.8659 52.7643 19.2225L74.4789 7.88679C75.1173 7.55347 75.4891 6.98193 75.4721 6.35804C75.4556 5.73463 75.0543 5.18374 74.3984 4.88452L67.0789 1.5398C66.3766 1.21897 65.2602 1.09217 64.488 1.25547L31.1301 8.35795C24.2658 4.94455 18.6007 2.17666 16.2386 1.14212C14.5047 0.38279 12.3966 0 9.97345 0C5.97488 0 1.08295 1.13876 0.178922 2.81929C0.143536 2.88364 -2.24329 9.89967 11.5416 17.7514L62.949 43.7076C63.0004 43.7316 64.2263 44.3396 65.4187 44.5471C67.4367 44.8982 69.6219 45 71.8696 45H72.521C72.8327 45 73.1391 45 73.4401 45H73.6432V44.9289C75.0974 44.9289 76.1658 44.3055 76.3374 44.1878L93.1513 31.4895L93.1911 31.442C93.7897 30.929 94.0738 30.1567 93.9836 29.3734ZM73.6418 43.649H73.6422V43.6566L73.6418 43.649Z" fill="#1E4075"/>
</svg>
