<svg width="74" height="73" viewBox="0 0 74 73" fill="none" xmlns="http://www.w3.org/2000/svg">
<g clip-path="url(#clip0)">
<path d="M67.488 17.8501C66.892 12.0229 65.9425 7.48581 64.4403 5.70246C58.2467 -1.63015 14.8616 -2.16676 9.93567 5.70246C8.73071 7.63041 7.88563 12.1514 7.31849 17.8598C5.48855 18.075 4.06348 19.6158 4.06348 21.502V28.6402C4.06348 30.2275 5.06922 31.5658 6.47341 32.088C6.14084 43.3311 6.41075 55.0611 6.9088 60.8947C6.9088 65.398 9.93407 64.651 9.93407 64.651H12.7698V69.5126C12.7698 71.4405 14.7571 73.0006 17.2056 73.0006C19.6573 73.0006 21.6447 71.4405 21.6447 69.5126V64.651H54.6351V69.5126C54.6351 71.4405 56.6208 73.0006 59.0726 73.0006C61.521 73.0006 63.5084 71.4405 63.5084 69.5126V64.651H64.4403C64.4403 64.651 68.0005 65.1394 68.2287 63.0186C68.2287 57.2011 68.595 44.3079 68.2929 32.1378C69.7855 31.6703 70.8748 30.295 70.8748 28.6402V21.502C70.8764 19.5708 69.3822 18.0044 67.488 17.8501ZM20.5313 6.74837H53.8446V11.7883H20.5313V6.74837ZM21.0069 58.9105C18.3913 58.9105 16.2722 56.7898 16.2722 54.1742C16.2722 51.5602 18.3913 49.4411 21.0069 49.4411C23.6225 49.4411 25.7432 51.5602 25.7432 54.1742C25.7432 56.7898 23.6241 58.9105 21.0069 58.9105ZM53.6663 58.9105C51.0523 58.9105 48.9283 56.7898 48.9283 54.1742C48.9283 51.5602 51.0507 49.4411 53.6663 49.4411C56.2818 49.4411 58.401 51.5602 58.401 54.1742C58.4026 56.7898 56.2818 58.9105 53.6663 58.9105ZM59.6863 38.1851H14.6897V14.5839H59.6863V38.1851Z" fill="#234579"/>
</g>
<defs>
<clipPath id="clip0">
<rect width="73" height="73" fill="white" transform="translate(0.96875)"/>
</clipPath>
</defs>
</svg>
