<svg width="80" height="53" viewBox="0 0 80 53" fill="none" xmlns="http://www.w3.org/2000/svg">
<path d="M79.4203 16.0328C79.2325 15.4861 78.5669 15.061 78.0112 15.061C75.6049 15.061 73.1989 15.061 70.7926 15.061C70.2371 15.061 69.5713 15.4861 69.3833 16.0328C69.1996 16.5679 69.0623 17.0453 68.971 17.4943L64.1491 4.15424C63.3538 1.95448 61.2475 0.476562 58.9086 0.476562H22.0291C19.6901 0.476562 17.5842 1.95448 16.7885 4.15464L11.9664 17.4959C11.8749 17.0465 11.7376 16.5685 11.5536 16.0328C11.3658 15.4861 10.7 15.061 10.1446 15.061C7.73841 15.061 5.33226 15.061 2.92592 15.061C2.37042 15.061 1.70463 15.4861 1.51686 16.0328C0.785812 18.1613 0.786212 19.3798 1.51706 21.5085C1.70483 22.0552 2.37062 22.4804 2.92612 22.4804C5.33246 22.4804 7.73861 22.4804 10.1448 22.4804C10.1516 22.4804 10.1588 22.4786 10.1658 22.4784L10.0569 22.78C8.58496 23.2691 7.52221 24.6547 7.52221 26.291V37.4619V38.3825V50.744C7.52221 51.7266 8.31852 52.5229 9.3012 52.5229H18.2546C19.2371 52.5229 20.0336 51.7266 20.0336 50.744V42.0838H60.904V50.744C60.904 51.7266 61.7005 52.5229 62.683 52.5229H71.6363C72.619 52.5229 73.4153 51.7266 73.4153 50.744V38.3825V37.4619V26.291C73.4153 24.6551 72.353 23.2697 70.8817 22.7802L70.7726 22.4784C70.7792 22.4786 70.7862 22.4802 70.7928 22.4802C73.1991 22.4802 75.6051 22.4802 78.0114 22.4802C78.5671 22.4802 79.2327 22.055 79.4205 21.5083C80.1513 19.3798 80.1509 18.1613 79.4203 16.0328ZM22.7103 7.0232H58.2224L63.849 22.5895H17.0839L22.7103 7.0232ZM23.7008 33.5554H16.2106C14.6035 33.5554 13.301 32.2529 13.301 30.6458C13.301 29.039 14.6033 27.7363 16.2106 27.7363H23.7008C25.3077 27.7363 26.6104 29.0388 26.6104 30.6458C26.6106 32.2529 25.3077 33.5554 23.7008 33.5554ZM64.7264 33.5554H57.2361C55.6293 33.5554 54.3265 32.2529 54.3265 30.6458C54.3265 29.039 55.6293 27.7363 57.2361 27.7363H64.7264C66.3334 27.7363 67.636 29.0388 67.636 30.6458C67.636 32.2529 66.3334 33.5554 64.7264 33.5554Z" fill="#234579"/>
</svg>
