<svg width="37" height="37" viewBox="0 0 37 37" fill="none" xmlns="http://www.w3.org/2000/svg">
<g clip-path="url(#clip0)">
<path d="M30.7014 5.50634H25.8563C22.0848 5.50634 19.0165 8.57468 19.0165 12.3461V16.4353H15.1823C14.785 16.4353 14.4626 16.7575 14.4626 17.155V22.6923C14.4626 23.0898 14.785 23.412 15.1823 23.412H19.0165V35.488H2.15914C1.76217 35.488 1.43943 35.1653 1.43943 34.7683V2.23726C1.43943 1.8403 1.76217 1.51755 2.15914 1.51755H3.59857C3.99609 1.51755 4.31828 1.19537 4.31828 0.797838C4.31828 0.400309 3.99609 0.078125 3.59857 0.078125H2.15914C0.96852 0.078125 0 1.04665 0 2.23726V34.7683C0 35.9589 0.96852 36.9274 2.15914 36.9274H19.7362C20.1337 36.9274 20.4559 36.6053 20.4559 36.2077V22.6923C20.4559 22.2948 20.1337 21.9726 19.7362 21.9726H15.9023V17.8744H19.7362C20.1337 17.8744 20.4559 17.5523 20.4559 17.1547V12.3461C20.4559 9.36833 22.8784 6.94548 25.8565 6.94548H29.982V11.0433H25.8565C25.1503 11.0433 24.5537 11.6399 24.5537 12.3461V17.1547C24.5537 17.5523 24.8759 17.8744 25.2735 17.8744H29.881L29.3418 21.9726H25.2735C24.8762 21.9726 24.5537 22.2948 24.5537 22.6923V36.2077C24.5537 36.6053 24.8762 36.9274 25.2735 36.9274H27.493C27.8906 36.9274 28.2128 36.6053 28.2128 36.2077C28.2128 35.8102 27.8906 35.488 27.493 35.488H25.9932V23.412H29.973C30.3342 23.412 30.6395 23.1441 30.6865 22.7862L31.4152 17.2486C31.4422 17.0434 31.3795 16.8362 31.2429 16.6804C31.1062 16.5244 30.9089 16.4353 30.7017 16.4353H25.9935V12.4831H30.7017C31.0992 12.4831 31.4214 12.1609 31.4214 11.7633V6.22605C31.4211 5.82852 31.0989 5.50634 30.7014 5.50634Z" fill="white"/>
<path d="M34.6903 0.078125H9.35643C8.9589 0.078125 8.63672 0.400309 8.63672 0.797838C8.63672 1.19537 8.9589 1.51755 9.35643 1.51755H34.6903C35.0873 1.51755 35.41 1.8403 35.41 2.23726V34.7683C35.41 35.1653 35.0873 35.488 34.6903 35.488H33.2509C32.8534 35.488 32.5312 35.8102 32.5312 36.2077C32.5312 36.6053 32.8534 36.9274 33.2509 36.9274H34.6903C35.881 36.9274 36.8495 35.9589 36.8495 34.7683V2.23726C36.8495 1.04665 35.881 0.078125 34.6903 0.078125Z" fill="white"/>
</g>
<defs>
<clipPath id="clip0">
<rect width="36.8493" height="36.8493" fill="white" transform="translate(0 0.078125)"/>
</clipPath>
</defs>
</svg>
