<svg width="69" height="68" viewBox="0 0 69 68" fill="none" xmlns="http://www.w3.org/2000/svg">
<g clip-path="url(#clip0)">
<path d="M43.2861 43.6484V58.136C43.2861 60.1518 44.2902 62.0193 45.9719 63.1311L53.3376 68.0011L60.6467 63.1284C62.3164 62.0153 63.3133 60.1526 63.3133 58.1459V43.6484H43.2861Z" fill="#234579"/>
<path d="M55.3291 39.7876V15.8071L39.522 0H6.625V64.1403H41.2027C39.9782 62.4595 39.2939 60.4143 39.2939 58.2674V39.7876H55.3291ZM40.6913 6.81501L48.5141 14.6378H40.6913V6.81501ZM19.9321 21.0253H43.3527V25.0174H19.9321V21.0253ZM31.6424 40.9859H19.9321V36.9939H31.6424V40.9859ZM19.9321 33.0017V29.0096H43.3527V33.0017H19.9321Z" fill="#234579"/>
</g>
<defs>
<clipPath id="clip0">
<rect width="68" height="68" fill="white" transform="translate(0.96875)"/>
</clipPath>
</defs>
</svg>
