<svg width="38" height="37" viewBox="0 0 38 37" fill="none" xmlns="http://www.w3.org/2000/svg">
<g clip-path="url(#clip0)">
<path d="M28.3055 0.078125H17.7977C17.4002 0.078125 17.078 0.400309 17.078 0.797838C17.078 1.19537 17.4002 1.51755 17.7977 1.51755H28.3055C32.6708 1.51755 36.2224 5.06889 36.2224 9.4344V27.5712C36.2224 31.9367 32.6708 35.488 28.3055 35.488H10.1688C5.80354 35.488 2.25193 31.9367 2.25193 27.5712V9.4344C2.25193 5.06889 5.80354 1.51755 10.1688 1.51755H12.04C12.4376 1.51755 12.7597 1.19537 12.7597 0.797838C12.7597 0.400309 12.4376 0.078125 12.04 0.078125H10.1688C5.00961 0.078125 0.8125 4.27523 0.8125 9.4344V27.5712C0.8125 32.7303 5.00961 36.9274 10.1688 36.9274H28.3055C33.4647 36.9274 37.6618 32.7303 37.6618 27.5712V9.4344C37.6618 4.27523 33.4647 0.078125 28.3055 0.078125Z" fill="white"/>
<path d="M27.154 18.5028C27.154 14.1376 23.6024 10.5859 19.2372 10.5859C14.8719 10.5859 11.3203 14.1376 11.3203 18.5028C11.3203 22.868 14.8719 26.4196 19.2372 26.4196C23.6024 26.4196 27.154 22.868 27.154 18.5028ZM19.2372 24.9802C15.6656 24.9802 12.7597 22.0744 12.7597 18.5028C12.7597 14.9312 15.6656 12.0254 19.2372 12.0254C22.8087 12.0254 25.7146 14.9312 25.7146 18.5028C25.7146 22.0744 22.8087 24.9802 19.2372 24.9802Z" fill="white"/>
<path d="M31.1845 9.43354C31.1845 7.84595 29.8929 6.55469 28.3056 6.55469C26.718 6.55469 25.4268 7.84595 25.4268 9.43354C25.4268 11.0208 26.718 12.3124 28.3056 12.3124C29.8929 12.3124 31.1845 11.0208 31.1845 9.43354ZM26.8662 9.43354C26.8662 8.63961 27.512 7.99411 28.3056 7.99411C29.0993 7.99411 29.745 8.63961 29.745 9.43354C29.745 10.2272 29.0993 10.873 28.3056 10.873C27.512 10.873 26.8662 10.2272 26.8662 9.43354Z" fill="white"/>
</g>
<defs>
<clipPath id="clip0">
<rect width="36.8493" height="36.8493" fill="white" transform="translate(0.8125 0.078125)"/>
</clipPath>
</defs>
</svg>
