<svg width="69" height="68" viewBox="0 0 69 68" fill="none" xmlns="http://www.w3.org/2000/svg">
<path d="M31.9961 27.2422C32.2842 30.4775 33.2749 33.639 34.9695 36.3687C36.6641 33.639 37.6548 30.4774 37.9428 27.2422H31.9961Z" fill="#234579"/>
<path d="M26.5125 16.7911C24.6889 18.6148 23.5818 20.8861 23.1846 23.2546H28.0039C28.2386 20.0534 29.0362 16.9877 30.341 14.2227C28.9488 14.8049 27.6441 15.6594 26.5125 16.7911Z" fill="#234579"/>
<path d="M28.0039 27.2422H23.1846C23.5818 29.6106 24.6888 31.882 26.5125 33.7056C27.6441 34.8372 28.9486 35.6916 30.3409 36.274C29.0362 33.5089 28.2386 30.4434 28.0039 27.2422Z" fill="#234579"/>
<path d="M34.9695 14.1289C33.2749 16.8586 32.2842 20.0202 31.9961 23.2554H37.9428C37.6548 20.0202 36.6639 16.8586 34.9695 14.1289Z" fill="#234579"/>
<path d="M43.4266 16.7911C42.2951 15.6596 40.9902 14.805 39.5977 14.2227C40.9025 16.9877 41.7001 20.0534 41.9348 23.2546H46.7545C46.3574 20.8861 45.2503 18.6148 43.4266 16.7911Z" fill="#234579"/>
<path d="M9.05566 0V68H60.8824V0H9.05566ZM48.7287 56.045H21.1813V52.0585H48.7287V56.045ZM46.2444 36.5234C43.5331 39.2348 40.0803 40.7633 36.5327 41.1099C36.5117 41.1352 36.4914 41.1611 36.4703 41.1864L36.3995 41.1218C35.9236 41.1643 35.4463 41.1864 34.9688 41.1864C34.4912 41.1864 34.0138 41.1642 33.5377 41.1217L33.4669 41.1862C33.4458 41.161 33.4254 41.1351 33.4044 41.1097C29.8572 40.7631 26.4046 39.2344 23.6935 36.5233C17.4761 30.306 17.4761 20.1895 23.6935 13.9721C26.4044 11.261 29.857 9.7325 33.4044 9.38586C33.4254 9.36049 33.4459 9.33459 33.467 9.30923L33.5379 9.37391C34.4898 9.28891 35.4478 9.28891 36.3995 9.37391L36.4703 9.30936C36.4914 9.33459 36.5117 9.36049 36.5327 9.38586C40.0803 9.73237 43.533 11.261 46.2442 13.9724C52.4617 20.1898 52.4617 30.3061 46.2444 36.5234Z" fill="#234579"/>
<path d="M41.9348 27.2422C41.7002 30.4435 40.9025 33.5092 39.5977 36.2744C40.9903 35.692 42.2951 34.8373 43.4268 33.7056C45.2504 31.882 46.3575 29.6106 46.7547 27.2422H41.9348Z" fill="#234579"/>
</svg>
