<svg width="38" height="37" viewBox="0 0 38 37" fill="none" xmlns="http://www.w3.org/2000/svg">
<g clip-path="url(#clip0)">
<path d="M37.5862 7.05681C37.3799 6.81196 37.0367 6.73279 36.744 6.86263C36.3059 7.05688 35.8601 7.22788 35.4078 7.37513C35.994 6.63232 36.4497 5.785 36.7468 4.86838C36.8391 4.58359 36.7455 4.27138 36.5117 4.08439C36.2779 3.89741 35.9527 3.87474 35.6953 4.02725C34.4382 4.77208 33.087 5.30834 31.6734 5.624C30.1969 4.20502 28.2038 3.39844 26.1426 3.39844C21.7418 3.39844 18.1616 6.97864 18.1616 11.3794C18.1616 11.6682 18.1774 11.959 18.2086 12.2497C17.0772 12.142 15.9571 11.9386 14.868 11.6427C14.4845 11.5385 14.089 11.765 13.9848 12.1486C13.8806 12.5322 14.1071 12.9276 14.4907 13.0319C15.9655 13.4325 17.4929 13.675 19.0304 13.7524C19.2557 13.7638 19.4719 13.6694 19.6169 13.4975C19.7618 13.3256 19.8181 13.0958 19.769 12.8764C19.6576 12.3789 19.6011 11.8751 19.6011 11.3794C19.6011 7.77234 22.5356 4.83786 26.1426 4.83786C27.9451 4.83786 29.6834 5.58974 30.9118 6.9007C31.081 7.08135 31.3312 7.16246 31.5743 7.1151C32.5625 6.92308 33.5246 6.63448 34.4519 6.25274C33.9321 6.97425 33.2682 7.5881 32.4948 8.05109C32.2034 8.22547 32.0736 8.57972 32.1832 8.90099C32.2928 9.22227 32.6119 9.42336 32.9492 9.38335C33.6139 9.30446 34.2724 9.1814 34.9209 9.01507C34.331 9.63229 33.6839 10.1949 32.9837 10.6984C32.7908 10.8372 32.6787 11.0621 32.6843 11.2997L32.7062 12.2317C32.7017 22.0297 25.2435 32.1614 12.7653 32.1614C9.91374 32.1614 7.11975 31.5551 4.54988 30.3913C7.57511 30.1626 10.4141 29.0651 12.8215 27.1826C13.0612 26.9951 13.1571 26.6772 13.061 26.3883C12.9648 26.0996 12.6974 25.9025 12.3932 25.8961C9.98399 25.8458 7.8286 24.4867 6.72751 22.4139C6.80603 22.416 6.88512 22.4171 6.96465 22.4171C7.67861 22.4171 8.38371 22.3262 9.06038 22.1469C9.38368 22.0613 9.60535 21.7643 9.59549 21.43C9.58563 21.0957 9.34683 20.8123 9.01907 20.7459C6.33447 20.2018 4.29992 18.03 3.86118 15.3896C4.65467 15.6796 5.47708 15.8367 6.31842 15.8582C6.63891 15.8659 6.92622 15.6616 7.02302 15.3559C7.11968 15.0501 7.00251 14.7173 6.73564 14.5396C4.91347 13.3266 3.82563 11.2931 3.82563 9.10014C3.82563 8.2891 3.97432 7.49094 4.26048 6.74726C5.43383 8.04281 6.75853 9.18895 8.21019 10.1634C8.54025 10.385 8.98733 10.2969 9.20886 9.96696C9.43046 9.63697 9.34244 9.18982 9.01245 8.96829C7.37014 7.8659 5.90193 6.52782 4.64848 4.99123C4.4995 4.80857 4.27027 4.71076 4.0355 4.72854C3.80051 4.74667 3.58928 4.87867 3.47002 5.08199C2.76103 6.29074 2.38628 7.68022 2.38628 9.10021C2.38628 10.8549 2.95715 12.5258 3.97742 13.8859C3.78324 13.801 3.59108 13.7062 3.40143 13.6015C3.17847 13.4784 2.90706 13.4823 2.68769 13.6117C2.4684 13.7412 2.33381 13.9768 2.33381 14.2315V14.3201C2.33381 16.9828 3.66262 19.4017 5.73949 20.8655C5.73517 20.8647 5.73085 20.8639 5.72653 20.863C5.47715 20.816 5.22122 20.9037 5.05317 21.0941C4.88519 21.2845 4.82992 21.5493 4.90779 21.791C5.75223 24.4124 7.86998 26.3703 10.4526 27.0634C8.31598 28.3331 5.89401 28.9969 3.35487 28.9969C2.80378 28.9969 2.26436 28.9666 1.70565 28.9045C1.37357 28.8676 1.05927 29.0644 0.947647 29.3795C0.835948 29.6948 0.95614 30.0453 1.23769 30.2258C4.68288 32.4338 8.66907 33.6009 12.7654 33.6009C16.06 33.6009 19.1435 32.9464 21.9302 31.6552C24.4865 30.4711 26.7452 28.7788 28.6437 26.6253C32.1402 22.6591 34.1456 17.4096 34.1456 12.2231C34.1456 12.2175 34.1456 12.2118 34.1454 12.2062L34.1321 11.6395C35.5029 10.6017 36.68 9.35175 37.6347 7.91974C37.8123 7.65337 37.7925 7.30165 37.5862 7.05681Z" fill="white"/>
</g>
<defs>
<clipPath id="clip0">
<rect width="36.8493" height="36.8493" fill="white" transform="translate(0.90625 0.078125)"/>
</clipPath>
</defs>
</svg>
