<svg width="13" height="19" viewBox="0 0 13 19" fill="none" xmlns="http://www.w3.org/2000/svg">
<path d="M11.8981 1.60608C10.4733 -0.535768 8.19556 -0.535302 6.77112 1.60714L0.796881 10.7858C-0.28338 12.4846 -0.262735 15.2072 0.842994 16.8668C1.93053 18.4992 3.66741 18.4992 4.75494 16.8668L10.1647 8.55545C10.868 7.47496 10.868 5.72309 10.1647 4.64259C9.46143 3.5621 8.32117 3.5621 7.61789 4.64259L2.44332 12.5926C2.26284 12.8797 2.26802 13.3372 2.4549 13.6145C2.6372 13.885 2.9262 13.885 3.10851 13.6145L8.28305 5.66452C8.62618 5.15949 9.17083 5.17748 9.49953 5.70467C9.8183 6.21593 9.8183 7.02226 9.49953 7.53352L4.08979 15.8449C3.35897 16.9517 2.18249 16.9387 1.46207 15.8159C0.748921 14.7045 0.748921 12.9192 1.46207 11.8077L7.4363 2.62906C8.50047 0.993522 10.2261 0.993056 11.2906 2.62796C12.3552 4.26287 12.3555 6.91411 11.2914 8.54965L5.3171 17.7283C5.11977 17.9879 5.09678 18.4442 5.26578 18.7474C5.43477 19.0505 5.73173 19.0858 5.92906 18.8262C5.94747 18.802 5.96462 18.7756 5.98038 18.7474L11.9546 9.56869C13.3702 7.34592 13.3449 3.78091 11.8981 1.60608Z" fill="white"/>
</svg>
