<svg width="38" height="37" viewBox="0 0 38 37" fill="none" xmlns="http://www.w3.org/2000/svg">
<g clip-path="url(#clip0)">
<path d="M32.0101 24.7437L31.6449 24.1472C30.9312 22.9814 30.0674 21.9125 29.0777 20.97L27.8567 19.8074C27.7407 19.6968 27.7232 19.5213 27.8153 19.3901L29.4824 17.0145C29.7229 16.6719 29.9447 16.3111 30.1419 15.9422L31.5665 13.2766C31.8148 12.8121 31.8016 12.2649 31.531 11.8129C31.2605 11.361 30.7844 11.0908 30.2577 11.0902L27.1741 11.0867C27.1735 11.0867 27.1729 11.0867 27.1722 11.0867C26.5262 11.0867 25.9412 11.4688 25.6816 12.0604L25.355 12.8045C24.5217 14.7032 23.3842 16.4344 21.9732 17.9523V12.5194C21.9732 11.729 21.3301 11.0859 20.5398 11.0859H16.1725C15.4554 11.0859 14.8721 11.6693 14.8721 12.3865C14.8721 12.6603 14.9565 12.9226 15.1161 13.1449L15.4217 13.5706C15.7213 13.9878 15.8797 14.4799 15.8797 14.9936V18.9635C15.3411 18.338 14.6854 17.4886 14.1302 16.512C13.2802 15.0164 12.6709 13.2725 12.3834 12.366C12.1405 11.6004 11.4377 11.0859 10.6346 11.0859H7.51148C7.07072 11.0859 6.66538 11.2875 6.39909 11.6388C6.13301 11.9903 6.04888 12.4352 6.16842 12.8596L6.75103 14.9273C7.10808 16.1948 7.59892 17.4287 8.20989 18.5948C8.39428 18.9468 8.82913 19.0827 9.18135 18.8983C9.53351 18.7138 9.66932 18.2788 9.48486 17.9267C8.92024 16.849 8.46661 15.7085 8.13655 14.537L7.56977 12.5254H10.6347C10.8076 12.5254 10.959 12.6362 11.0113 12.8012C11.316 13.7615 11.9637 15.6132 12.879 17.2232C13.6299 18.5443 14.541 19.6449 15.1732 20.3355C15.5195 20.7139 16.0524 20.8385 16.5307 20.6525C17.0096 20.4665 17.3191 20.0143 17.3191 19.5006V14.9936C17.3191 14.1768 17.0673 13.3944 16.591 12.7311L16.4433 12.5254H20.5337V18.2971C20.5337 18.7194 20.7458 19.1076 21.101 19.3359C21.4561 19.5643 21.8973 19.5959 22.2815 19.4205L22.5782 19.2851C22.715 19.2227 22.8364 19.1357 22.9394 19.0264C24.5013 17.3677 25.7575 15.469 26.6731 13.3829L26.9997 12.6387C27.0297 12.5702 27.0975 12.526 27.1722 12.526H27.1725L30.2561 12.5295C30.2666 12.5295 30.2825 12.5296 30.296 12.5522C30.3096 12.5749 30.3021 12.5888 30.2972 12.5981L28.8726 15.2637C28.7026 15.5816 28.5114 15.8924 28.3043 16.1876L26.6371 18.5633C26.1325 19.2824 26.228 20.244 26.8641 20.8498L28.085 22.0124C28.9843 22.8687 29.769 23.8398 30.4174 24.8987L30.7825 25.4953C30.7913 25.5096 30.818 25.5533 30.7848 25.6127C30.7515 25.6721 30.7003 25.6721 30.6835 25.6721H28.0214C27.6793 25.6721 27.3463 25.5314 27.1079 25.2862L24.446 22.5492C23.8187 21.9042 23.0226 21.4612 22.1437 21.2683C21.7498 21.1817 21.3432 21.2771 21.0287 21.5301C20.7142 21.783 20.5338 22.1595 20.5338 22.5631V25.2523C20.5338 25.4838 20.3455 25.6721 20.114 25.6721C18.0512 25.6721 16.0127 24.9819 14.3742 23.7287C13.714 23.2238 13.0844 22.667 12.5028 22.0738C12.2246 21.7901 11.7689 21.7854 11.485 22.0637C11.2012 22.342 11.1967 22.7978 11.4749 23.0815C12.1042 23.7234 12.7854 24.3258 13.4996 24.872C15.3878 26.3162 17.7368 27.1116 20.1139 27.1116C21.1391 27.1116 21.9732 26.2775 21.9732 25.2523V22.7079C22.5212 22.8542 23.0169 23.1444 23.414 23.5528L26.076 26.2899C26.5838 26.812 27.2929 27.1116 28.0214 27.1116H30.6835C31.2458 27.1116 31.7658 26.8069 32.0405 26.3163C32.3153 25.8258 32.3036 25.2232 32.0101 24.7437Z" fill="white"/>
<path d="M32.817 0.078125H5.46788C2.84863 0.078125 0.717773 2.20898 0.717773 4.82823V32.1773C0.717773 34.7966 2.84863 36.9274 5.46788 36.9274H32.817C35.4362 36.9274 37.5671 34.7966 37.5671 32.1773V4.82823C37.5671 2.20898 35.4362 0.078125 32.817 0.078125ZM36.1277 32.1773C36.1277 34.0028 34.6425 35.488 32.817 35.488H5.46788C3.6424 35.488 2.1572 34.0028 2.1572 32.1773V4.82823C2.1572 3.00275 3.6424 1.51755 5.46788 1.51755H32.817C34.6425 1.51755 36.1277 3.00275 36.1277 4.82823V32.1773Z" fill="white"/>
</g>
<defs>
<clipPath id="clip0">
<rect width="36.8493" height="36.8493" fill="white" transform="translate(0.717773 0.078125)"/>
</clipPath>
</defs>
</svg>
