<svg width="69" height="68" viewBox="0 0 69 68" fill="none" xmlns="http://www.w3.org/2000/svg">
<g clip-path="url(#clip0)">
<path d="M56.2188 38.25C53.8728 38.25 51.9688 40.154 51.9688 42.5C51.9688 44.846 53.8728 46.75 56.2188 46.75H68.9688V38.25H56.2188Z" fill="#234579"/>
<path d="M56.2188 34.0026H64.7188V23.3776C64.7188 22.1876 63.7837 21.2526 62.5938 21.2526H58.3438V14.8776C58.3438 13.6876 57.4087 12.7526 56.2188 12.7526H51.1613L47.5062 5.4426C46.9538 4.3801 45.6787 3.9551 44.6587 4.4651L39.7287 6.9301L39.0062 5.4426C38.4538 4.3801 37.1787 3.9551 36.1587 4.4651L19.5837 12.7526H7.34375C3.81625 12.7526 0.96875 15.6001 0.96875 19.1276V57.3776C0.96875 60.9051 3.81625 63.7526 7.34375 63.7526H62.5938C63.7837 63.7526 64.7188 62.8176 64.7188 61.6276V51.0026H56.2188C51.5438 51.0026 47.7188 47.1776 47.7188 42.5026C47.7188 37.8276 51.5438 34.0026 56.2188 34.0026ZM54.0938 17.0026V18.6176L53.2863 17.0026H54.0938ZM5.34625 19.8501C5.26125 19.6376 5.21875 19.3826 5.21875 19.1276C5.21875 17.9376 6.15375 17.0026 7.34375 17.0026H11.0838L5.34625 19.8501ZM12.1037 21.2526L36.1587 9.2251L42.1512 21.2526H12.1037ZM46.9113 21.2526L41.6413 10.7126L44.6587 9.2251L50.6512 21.2526H46.9113Z" fill="#234579"/>
</g>
<defs>
<clipPath id="clip0">
<rect width="68" height="68" fill="white" transform="translate(0.96875)"/>
</clipPath>
</defs>
</svg>
