<svg width="15" height="15" viewBox="0 0 15 15" fill="none" xmlns="http://www.w3.org/2000/svg">
<path d="M12.6153 9.38357C12.0732 8.84838 11.3964 8.84838 10.8577 9.38357C10.4468 9.79101 10.0359 10.1984 9.63195 10.6128C9.52145 10.7267 9.42822 10.7509 9.29356 10.6749C9.02768 10.5299 8.74454 10.4125 8.48902 10.2537C7.29775 9.50442 6.29985 8.54108 5.41589 7.45688C4.97737 6.91823 4.58719 6.34161 4.3144 5.69247C4.25916 5.56126 4.26951 5.47494 4.37656 5.3679C4.78746 4.97082 5.188 4.56338 5.59199 4.15595C6.15483 3.58968 6.15483 2.92673 5.58854 2.35701C5.26742 2.03244 4.94629 1.71478 4.62517 1.39021C4.29368 1.05873 3.96565 0.723806 3.63072 0.395785C3.0886 -0.132502 2.41183 -0.132502 1.87317 0.399238C1.45881 0.806675 1.06172 1.22447 0.640462 1.625C0.250279 1.99446 0.0534607 2.44678 0.0120253 2.97507C-0.0535807 3.83483 0.157049 4.64625 0.454003 5.43696C1.06172 7.07361 1.98711 8.52726 3.10932 9.86007C4.62517 11.6625 6.43451 13.0885 8.55117 14.1174C9.50419 14.5801 10.4917 14.9358 11.5656 14.9945C12.3045 15.0359 12.9468 14.8494 13.4613 14.2728C13.8135 13.8792 14.2106 13.5201 14.5835 13.1437C15.136 12.5844 15.1394 11.9076 14.5904 11.3552C13.9343 10.6957 13.2748 10.0396 12.6153 9.38357Z" fill="white"/>
</svg>
