<svg width="30" height="30" viewBox="0 0 30 30" fill="none" xmlns="http://www.w3.org/2000/svg">
<path d="M25.2306 18.7671C24.1464 17.6968 22.7928 17.6968 21.7155 18.7671C20.8937 19.582 20.0719 20.3969 19.2639 21.2256C19.0429 21.4535 18.8564 21.5018 18.5871 21.3499C18.0554 21.0598 17.4891 20.825 16.978 20.5074C14.5955 19.0088 12.5997 17.0822 10.8318 14.9138C9.95474 13.8365 9.17437 12.6832 8.62881 11.3849C8.51831 11.1225 8.53903 10.9499 8.75311 10.7358C9.57491 9.94164 10.376 9.12677 11.184 8.31189C12.3097 7.17936 12.3097 5.85346 11.1771 4.71402C10.5348 4.06488 9.89258 3.42955 9.25034 2.78042C8.58737 2.11747 7.93131 1.44761 7.26144 0.79157C6.17721 -0.265005 4.82365 -0.265005 3.74633 0.798476C2.91762 1.61335 2.12345 2.44894 1.28092 3.25C0.500558 3.98892 0.106921 4.89356 0.0240507 5.95014C-0.107161 7.66966 0.314099 9.29251 0.908006 10.8739C2.12345 14.1472 3.97423 17.0545 6.21865 19.7201C9.25034 23.3249 12.869 26.177 17.1023 28.2349C19.0084 29.1602 20.9835 29.8715 23.1312 29.9889C24.6091 30.0718 25.8936 29.6989 26.9225 28.5456C27.6269 27.7584 28.4211 27.0402 29.167 26.2875C30.2719 25.1687 30.2788 23.8152 29.1808 22.7103C27.8686 21.3913 26.5496 20.0792 25.2306 18.7671Z" fill="#373C4F" fill-opacity="0.8"/>
</svg>
