<svg width="80" height="80" viewBox="0 0 80 80" fill="none" xmlns="http://www.w3.org/2000/svg">
<circle cx="40" cy="40" r="39" stroke="#1B3F76" stroke-width="2"/>
<path d="M57.0174 23.823H22.9826C18.5747 23.823 15 27.3991 15 31.807V48.1959C15 52.601 18.5747 56.1771 22.9826 56.1771H57.0174C61.4267 56.1771 65 52.601 65 48.1959V31.8056C65 27.3991 61.4267 23.823 57.0174 23.823ZM28.0433 51.2753H19.4108V48.3334H28.0433V51.2753ZM38.8919 51.2753H30.258V48.3334H38.8919V51.2753ZM38.806 36.5255C38.806 33.1642 41.5289 30.4384 44.8932 30.4384C46.5095 30.4384 47.974 31.0755 49.0649 32.1048C50.1586 31.0755 51.6203 30.4384 53.2423 30.4384C56.6037 30.4384 59.3266 33.1642 59.3266 36.5255C59.3266 39.8869 56.6037 42.6098 53.2423 42.6098C51.6203 42.6098 50.1586 41.9756 49.0649 40.9463C47.974 41.9756 46.5095 42.6098 44.8932 42.6098C41.5289 42.6084 38.806 39.8826 38.806 36.5255ZM49.742 51.2753H41.1081V48.3334H49.742V51.2753ZM60.5878 51.2753H51.9567V48.3334H60.5878V51.2753Z" fill="#1B3F76"/>
</svg>
