<svg width="80" height="80" viewBox="0 0 80 80" fill="none" xmlns="http://www.w3.org/2000/svg">
<circle cx="40" cy="40" r="39" stroke="#1B3F76" stroke-width="2"/>
<path d="M38.9643 38.9643L34.1406 43.7878L32.2467 41.8939C31.6747 41.3219 30.7472 41.3219 30.1751 41.8939C29.603 42.466 29.603 43.3935 30.1751 43.9655L33.1048 46.8952C33.3908 47.1812 33.7657 47.3242 34.1406 47.3242C34.5155 47.3242 34.8904 47.1812 35.1764 46.8951L41.0357 41.0357C41.6078 40.4637 41.6078 39.5362 41.0357 38.9642C40.4638 38.3921 39.5362 38.3921 38.9643 38.9643ZM38.9643 27.2455L34.1406 32.069L32.2467 30.1752C31.6747 29.6031 30.7472 29.6031 30.1751 30.1752C29.603 30.7473 29.603 31.6747 30.1751 32.2468L33.1048 35.1765C33.3908 35.4625 33.7657 35.6055 34.1406 35.6055C34.5155 35.6055 34.8904 35.4625 35.1764 35.1764L41.0357 29.317C41.6078 28.7449 41.6078 27.8175 41.0357 27.2454C40.4638 26.6733 39.5362 26.6733 38.9643 27.2455ZM38.9643 50.683L34.1406 55.5065L32.2467 53.6127C31.6747 53.0406 30.7472 53.0406 30.1751 53.6127C29.603 54.1848 29.603 55.1122 30.1751 55.6843L33.1048 58.614C33.3908 58.9 33.7657 59.043 34.1406 59.043C34.5155 59.043 34.8904 58.9 35.1764 58.6139L41.0357 52.7545C41.6078 52.1824 41.6078 51.255 41.0357 50.6829C40.4638 50.1108 39.5362 50.1108 38.9643 50.683ZM42.9297 31.2109C42.9297 32.0199 43.5855 32.6758 44.3945 32.6758H48.7891C49.598 32.6758 50.2539 32.0199 50.2539 31.2109C50.2539 30.402 49.598 29.7461 48.7891 29.7461H44.3945C43.5855 29.7461 42.9297 30.402 42.9297 31.2109ZM48.7891 53.1836H44.3945C43.5855 53.1836 42.9297 53.8395 42.9297 54.6484C42.9297 55.4574 43.5855 56.1133 44.3945 56.1133H48.7891C49.598 56.1133 50.2539 55.4574 50.2539 54.6484C50.2539 53.8395 49.598 53.1836 48.7891 53.1836ZM57.5781 17.9297H47.0723C46.4676 16.2248 44.8394 15 42.9297 15H37.0703C35.1606 15 33.5324 16.2248 32.9277 17.9297H22.4219C21.6129 17.9297 20.957 18.5855 20.957 19.3945V63.5352C20.957 64.3441 21.6129 65 22.4219 65H57.5781C58.3871 65 59.043 64.3441 59.043 63.5352V19.3945C59.043 18.5855 58.3871 17.9297 57.5781 17.9297ZM35.6055 19.3945C35.6055 18.5868 36.2626 17.9297 37.0703 17.9297H42.9297C43.7374 17.9297 44.3945 18.5868 44.3945 19.3945V20.8594H35.6055V19.3945ZM56.1133 62.0703H23.8867V20.8594H32.6758V22.3242C32.6758 23.1332 33.3316 23.7891 34.1406 23.7891H45.8594C46.6684 23.7891 47.3242 23.1332 47.3242 22.3242V20.8594H56.1133V62.0703ZM48.7891 41.4648H44.3945C43.5855 41.4648 42.9297 42.1207 42.9297 42.9297C42.9297 43.7387 43.5855 44.3945 44.3945 44.3945H48.7891C49.598 44.3945 50.2539 43.7387 50.2539 42.9297C50.2539 42.1207 49.598 41.4648 48.7891 41.4648Z" fill="url(#paint0_linear)"/>
<defs>
<linearGradient id="paint0_linear" x1="40" y1="65" x2="40" y2="15" gradientUnits="userSpaceOnUse">
<stop stop-color="#1B3F76"/>
<stop offset="1" stop-color="#1B3F76"/>
</linearGradient>
</defs>
</svg>
