<svg width="37" height="37" viewBox="0 0 37 37" fill="none" xmlns="http://www.w3.org/2000/svg">
<g clip-path="url(#clip0)">
<path d="M30.7014 5.50243H25.8563C22.0848 5.50243 19.0165 8.57077 19.0165 12.3422V16.4314H15.1823C14.785 16.4314 14.4626 16.7536 14.4626 17.1511V22.6884C14.4626 23.0859 14.785 23.4081 15.1823 23.4081H19.0165V35.4841H2.15914C1.76217 35.4841 1.43943 35.1614 1.43943 34.7644V2.23336C1.43943 1.83639 1.76217 1.51364 2.15914 1.51364H3.59857C3.99609 1.51364 4.31828 1.19146 4.31828 0.793932C4.31828 0.396403 3.99609 0.0742188 3.59857 0.0742188H2.15914C0.96852 0.0742188 0 1.04274 0 2.23336V34.7644C0 35.955 0.96852 36.9235 2.15914 36.9235H19.7362C20.1337 36.9235 20.4559 36.6013 20.4559 36.2038V22.6884C20.4559 22.2909 20.1337 21.9687 19.7362 21.9687H15.9023V17.8705H19.7362C20.1337 17.8705 20.4559 17.5483 20.4559 17.1508V12.3422C20.4559 9.36442 22.8784 6.94158 25.8565 6.94158H29.982V11.0394H25.8565C25.1503 11.0394 24.5537 11.636 24.5537 12.3422V17.1508C24.5537 17.5483 24.8759 17.8705 25.2735 17.8705H29.881L29.3418 21.9687H25.2735C24.8762 21.9687 24.5537 22.2909 24.5537 22.6884V36.2038C24.5537 36.6013 24.8762 36.9235 25.2735 36.9235H27.493C27.8906 36.9235 28.2128 36.6013 28.2128 36.2038C28.2128 35.8063 27.8906 35.4841 27.493 35.4841H25.9932V23.4081H29.973C30.3342 23.4081 30.6395 23.1402 30.6865 22.7823L31.4152 17.2447C31.4422 17.0395 31.3795 16.8323 31.2429 16.6765C31.1062 16.5205 30.9089 16.4314 30.7017 16.4314H25.9935V12.4791H30.7017C31.0992 12.4791 31.4214 12.157 31.4214 11.7594V6.22214C31.4211 5.82461 31.0989 5.50243 30.7014 5.50243Z" fill="white"/>
<path d="M34.6903 0.0742188H9.35643C8.9589 0.0742188 8.63672 0.396403 8.63672 0.793932C8.63672 1.19146 8.9589 1.51364 9.35643 1.51364H34.6903C35.0873 1.51364 35.41 1.83639 35.41 2.23336V34.7644C35.41 35.1614 35.0873 35.4841 34.6903 35.4841H33.2509C32.8534 35.4841 32.5312 35.8063 32.5312 36.2038C32.5312 36.6013 32.8534 36.9235 33.2509 36.9235H34.6903C35.881 36.9235 36.8495 35.955 36.8495 34.7644V2.23336C36.8495 1.04274 35.881 0.0742188 34.6903 0.0742188Z" fill="white"/>
</g>
<defs>
<clipPath id="clip0">
<rect width="36.8493" height="36.8493" fill="white" transform="translate(0 0.0742188)"/>
</clipPath>
</defs>
</svg>
