<svg width="20" height="31" viewBox="0 0 20 31" fill="none" xmlns="http://www.w3.org/2000/svg">
<path d="M9.99995 0C4.48593 0 0 5.02261 0 11.1963C0 14.6495 1.58796 18.841 4.71993 23.6542C7.01191 27.1767 9.27045 29.6889 9.36549 29.7942C9.54018 29.9876 9.77001 30.0846 10.0001 30.0846C10.2235 30.0846 10.4471 29.9931 10.6204 29.8095C10.7157 29.7086 12.9799 27.2981 15.2762 23.8242C18.4107 19.0823 20 14.8337 20 11.1962C19.9999 5.02261 15.5139 0 9.99995 0ZM9.99995 16.0298C7.30419 16.0298 5.11109 13.6177 5.11109 10.6527C5.11109 7.68781 7.30424 5.27563 9.99995 5.27563C12.6956 5.27563 14.8888 7.68781 14.8888 10.6527C14.8888 13.6177 12.6956 16.0298 9.99995 16.0298Z" fill="#C7D0D9"/>
</svg>
