<svg width="38" height="37" viewBox="0 0 38 37" fill="none" xmlns="http://www.w3.org/2000/svg">
<g clip-path="url(#clip0)">
<path d="M28.3055 0.0742188H17.7977C17.4002 0.0742188 17.078 0.396403 17.078 0.793932C17.078 1.19146 17.4002 1.51364 17.7977 1.51364H28.3055C32.6708 1.51364 36.2224 5.06498 36.2224 9.43049V27.5673C36.2224 31.9328 32.6708 35.4841 28.3055 35.4841H10.1688C5.80354 35.4841 2.25193 31.9328 2.25193 27.5673V9.43049C2.25193 5.06498 5.80354 1.51364 10.1688 1.51364H12.04C12.4376 1.51364 12.7597 1.19146 12.7597 0.793932C12.7597 0.396403 12.4376 0.0742188 12.04 0.0742188H10.1688C5.00961 0.0742188 0.8125 4.27133 0.8125 9.43049V27.5673C0.8125 32.7264 5.00961 36.9235 10.1688 36.9235H28.3055C33.4647 36.9235 37.6618 32.7264 37.6618 27.5673V9.43049C37.6618 4.27133 33.4647 0.0742188 28.3055 0.0742188Z" fill="white"/>
<path d="M27.154 18.4989C27.154 14.1336 23.6024 10.582 19.2372 10.582C14.8719 10.582 11.3203 14.1336 11.3203 18.4989C11.3203 22.8641 14.8719 26.4157 19.2372 26.4157C23.6024 26.4157 27.154 22.8641 27.154 18.4989ZM19.2372 24.9763C15.6656 24.9763 12.7597 22.0705 12.7597 18.4989C12.7597 14.9273 15.6656 12.0215 19.2372 12.0215C22.8087 12.0215 25.7146 14.9273 25.7146 18.4989C25.7146 22.0705 22.8087 24.9763 19.2372 24.9763Z" fill="white"/>
<path d="M31.1835 9.43159C31.1835 7.844 29.8919 6.55273 28.3046 6.55273C26.717 6.55273 25.4258 7.844 25.4258 9.43159C25.4258 11.0189 26.717 12.3104 28.3046 12.3104C29.8919 12.3104 31.1835 11.0189 31.1835 9.43159ZM26.8652 9.43159C26.8652 8.63765 27.511 7.99216 28.3046 7.99216C29.0983 7.99216 29.7441 8.63765 29.7441 9.43159C29.7441 10.2252 29.0983 10.871 28.3046 10.871C27.511 10.871 26.8652 10.2252 26.8652 9.43159Z" fill="white"/>
</g>
<defs>
<clipPath id="clip0">
<rect width="36.8493" height="36.8493" fill="white" transform="translate(0.8125 0.0742188)"/>
</clipPath>
</defs>
</svg>
