<svg width="80" height="80" viewBox="0 0 80 80" fill="none" xmlns="http://www.w3.org/2000/svg">
<circle cx="40" cy="40" r="39" stroke="#1B3F76" stroke-width="2"/>
<path d="M48.3939 47.066C47.2092 47.066 46.2455 46.2318 46.2455 45.2065C46.2455 44.1811 47.2092 43.3469 48.3939 43.3469C49.5786 43.3469 50.5423 44.1811 50.5423 45.2065C50.5423 45.7458 50.9797 46.1831 51.5189 46.1831C52.0582 46.1831 52.4955 45.7458 52.4955 45.2065C52.4955 43.417 51.1621 41.9123 49.3705 41.5039V40.996C49.3705 40.4567 48.9332 40.0194 48.3939 40.0194C47.8547 40.0194 47.4174 40.4567 47.4174 40.996V41.5039C45.6258 41.9123 44.2924 43.417 44.2924 45.2065C44.2924 47.3088 46.1323 49.0191 48.3939 49.0191C49.5786 49.0191 50.5423 49.8533 50.5423 50.8787C50.5423 51.9041 49.5786 52.7382 48.3939 52.7382C47.2092 52.7382 46.2455 51.9041 46.2455 50.8787C46.2455 50.3394 45.8082 49.9021 45.2689 49.9021C44.7297 49.9021 44.2924 50.3394 44.2924 50.8787C44.2924 52.6682 45.6258 54.1729 47.4174 54.5813V55.0032C47.4174 55.5424 47.8547 55.9797 48.3939 55.9797C48.9332 55.9797 49.3705 55.5424 49.3705 55.0032V54.5813C51.1621 54.1729 52.4955 52.6682 52.4955 50.8787C52.4955 48.7763 50.6555 47.066 48.3939 47.066Z" fill="#1B3F76"/>
<path d="M52.8328 32.1062C52.714 31.823 52.5684 31.5561 52.399 31.3086H54.9413C57.4183 31.3086 59.4335 29.2933 59.4335 26.8164C59.4335 24.3394 57.4183 22.3242 54.9413 22.3242H47.121C47.6182 21.6014 47.9101 20.7268 47.9101 19.7851C47.9101 17.3082 45.8949 15.293 43.4179 15.293H19.4922C17.0152 15.293 15 17.3082 15 19.7851C15 22.2621 17.0152 24.2773 19.4922 24.2773H27.3125C26.8153 25.0002 26.5234 25.8747 26.5234 26.8164C26.5234 27.7581 26.8152 28.6326 27.3125 29.3554H24.7656C22.2887 29.3554 20.2734 31.3707 20.2734 33.8476C20.2734 35.2702 20.9389 36.5396 21.9741 37.3632C20.9389 38.1869 20.2734 39.4563 20.2734 40.8789C20.2734 42.3014 20.9389 43.5708 21.9741 44.3945C20.9389 45.2181 20.2734 46.4875 20.2734 47.9101C20.2734 49.3326 20.9389 50.6021 21.9741 51.4257C20.9389 52.2493 20.2734 53.5188 20.2734 54.9413C20.2734 57.4183 22.2887 59.4335 24.7656 59.4335H36.2744C39.3062 62.6764 43.6193 64.707 48.3985 64.707C57.5526 64.707 65 57.2596 65 48.1055C65 40.4867 59.8408 34.051 52.8328 32.1062ZM54.9413 24.2773C56.3414 24.2773 57.4804 25.4164 57.4804 26.8164C57.4804 28.2164 56.3414 29.3554 54.9413 29.3554H48.6913H31.0156C29.6155 29.3554 28.4765 28.2164 28.4765 26.8164C28.4765 25.4164 29.6155 24.2773 31.0156 24.2773H54.9413ZM19.4922 22.3242C18.0921 22.3242 16.9531 21.1851 16.9531 19.7851C16.9531 18.3851 18.0921 17.2461 19.4922 17.2461H43.4179C44.818 17.2461 45.957 18.3851 45.957 19.7851C45.957 21.1851 44.818 22.3242 43.4179 22.3242H19.4922ZM24.7656 31.3086H48.6913C49.0847 31.3086 49.4614 31.4 49.7993 31.5636C49.3373 31.5249 48.8703 31.504 48.3985 31.504C43.814 31.504 39.6578 33.372 36.6505 36.3867H24.7656C23.3656 36.3867 22.2265 35.2476 22.2265 33.8476C22.2265 32.4476 23.3656 31.3086 24.7656 31.3086ZM24.7656 38.3398H34.9819C33.8733 39.8586 33.0162 41.5717 32.4718 43.4179H24.7656C23.3655 43.4179 22.2265 42.279 22.2265 40.8789C22.2265 39.4789 23.3655 38.3398 24.7656 38.3398ZM24.7656 45.371H32.0234C31.8753 46.261 31.7969 47.1742 31.7969 48.1055C31.7969 48.901 31.8545 49.6832 31.9632 50.4491H24.7656C23.3655 50.4491 22.2265 49.3102 22.2265 47.9101C22.2265 46.51 23.3655 45.371 24.7656 45.371ZM24.7656 57.4804C23.3655 57.4804 22.2265 56.3414 22.2265 54.9413C22.2265 53.5412 23.3655 52.4023 24.7656 52.4023H32.3619C32.8547 54.2395 33.6551 55.9517 34.7049 57.4804H24.7656ZM48.3985 62.7539C40.3213 62.7539 33.7501 56.1826 33.7501 48.1055C33.7501 40.0284 40.3213 33.4571 48.3985 33.4571C56.4756 33.4571 63.0469 40.0284 63.0469 48.1055C63.0469 56.1826 56.4756 62.7539 48.3985 62.7539Z" fill="#1B3F76"/>
</svg>
