<svg width="40" height="37" viewBox="0 0 40 37" fill="none" xmlns="http://www.w3.org/2000/svg">
<g clip-path="url(#clip0)">
<path d="M19.8019 5.33789C16.1729 5.33789 13.2217 8.28913 13.2217 11.9181C13.2217 15.5471 16.1729 18.4984 19.8019 18.4984C23.4309 18.4984 26.3821 15.5471 26.3821 11.9181C26.3821 8.28913 23.4309 5.33789 19.8019 5.33789ZM19.8019 16.8533C17.081 16.8533 14.8667 14.6391 14.8667 11.9181C14.8667 9.1972 17.081 6.98295 19.8019 6.98295C22.5228 6.98295 24.7371 9.1972 24.7371 11.9181C24.7371 14.6391 22.5228 16.8533 19.8019 16.8533Z" fill="white"/>
<path d="M26.2341 30.3642L20.4764 22.1389C20.1704 21.7013 19.4384 21.7013 19.1291 22.1389L13.3714 30.3642C13.1115 30.736 13.2003 31.2493 13.5737 31.5092C13.9455 31.7707 14.4588 31.6803 14.7187 31.3085L19.8019 24.0455L24.8868 31.3085C25.0464 31.5371 25.3014 31.6589 25.5596 31.6589C25.7241 31.6589 25.887 31.6112 26.0334 31.5092C26.4052 31.2493 26.4957 30.7376 26.2341 30.3642Z" fill="white"/>
<path d="M27.9433 18.8962C27.6225 18.5755 27.1011 18.5755 26.7803 18.8962C22.9292 22.7457 16.6697 22.7457 12.8219 18.8962C12.5012 18.5755 11.9797 18.5755 11.6589 18.8962C11.3381 19.217 11.3381 19.7385 11.6589 20.0593C13.9044 22.3032 16.854 23.4267 19.8019 23.4267C22.7499 23.4267 25.6995 22.3032 27.9433 20.0593C28.2641 19.7385 28.2641 19.217 27.9433 18.8962Z" fill="white"/>
</g>
<path d="M28.7032 36.9235H31.0115C35.4173 36.9235 39.0018 33.4796 39.0018 29.2466V7.75116C39.0018 3.51818 35.4173 0.0742188 31.0115 0.0742188H8.63872C4.23297 0.0742188 0.648438 3.51818 0.648438 7.75116V29.2466C0.648438 33.4796 4.23297 36.9235 8.63872 36.9235H21.6007C22.0911 36.9235 22.4885 36.5417 22.4885 36.0705C22.4885 35.5994 22.0911 35.2175 21.6007 35.2175H8.63872C5.21199 35.2175 2.42406 32.5389 2.42406 29.2466V7.75116C2.42406 4.4588 5.21199 1.78021 8.63872 1.78021H31.0115C34.4383 1.78021 37.2262 4.4588 37.2262 7.75116V29.2466C37.2262 32.5389 34.4383 35.2175 31.0115 35.2175H28.7032C28.2128 35.2175 27.8154 35.5994 27.8154 36.0705C27.8154 36.5417 28.2128 36.9235 28.7032 36.9235Z" fill="white"/>
<defs>
<clipPath id="clip0">
<rect width="26.3209" height="26.3209" fill="white" transform="translate(6.64062 5.33789)"/>
</clipPath>
</defs>
</svg>
