<svg width="80" height="80" viewBox="0 0 80 80" fill="none" xmlns="http://www.w3.org/2000/svg">
<circle cx="40" cy="40" r="39" stroke="#1B3F76" stroke-width="2"/>
<path d="M39.6197 15C30.4555 15 23 23.3475 23 33.6079C23 39.3472 25.6392 46.3133 30.8444 54.3128C34.6536 60.1671 38.4073 64.3423 38.5652 64.5173C38.8556 64.8388 39.2375 65 39.62 65C39.9913 65 40.3629 64.8479 40.6509 64.5427C40.8092 64.375 44.5723 60.3688 48.3888 54.5954C53.5982 46.7144 56.2396 39.6533 56.2396 33.6078C56.2394 23.3475 48.7837 15 39.6197 15ZM39.6197 41.6413C35.1394 41.6413 31.4945 37.6323 31.4945 32.7046C31.4945 27.777 35.1395 23.768 39.6197 23.768C44.0999 23.768 47.7449 27.777 47.7449 32.7046C47.7449 37.6323 44.0998 41.6413 39.6197 41.6413Z" fill="#1B3F76"/>
</svg>
