<svg width="20" height="23" viewBox="0 0 20 23" fill="none" xmlns="http://www.w3.org/2000/svg">
<path d="M16.8204 13.8516C16.0976 13.0616 15.1952 13.0616 14.477 13.8516C13.9291 14.453 13.3813 15.0545 12.8426 15.6661C12.6953 15.8343 12.571 15.87 12.3914 15.7578C12.0369 15.5438 11.6594 15.3705 11.3187 15.136C9.73034 14.03 8.3998 12.6079 7.22119 11.0075C6.63649 10.2124 6.11625 9.36117 5.75254 8.40295C5.67887 8.20927 5.69269 8.08184 5.83541 7.92384C6.38328 7.33769 6.91733 6.73625 7.45599 6.13481C8.20643 5.29891 8.20643 4.3203 7.45139 3.4793C7.02322 3.00019 6.59506 2.53127 6.16689 2.05216C5.72491 1.56285 5.28754 1.06845 4.84096 0.584239C4.11814 -0.195594 3.21577 -0.195594 2.49755 0.589336C1.94508 1.19077 1.41563 1.8075 0.85395 2.39875C0.333705 2.94412 0.071281 3.61182 0.0160338 4.39166C-0.071441 5.66079 0.209399 6.85858 0.605338 8.02578C1.41563 10.4417 2.64948 12.5875 4.14576 14.555C6.16689 17.2156 8.57935 19.3206 11.4016 20.8395C12.6723 21.5225 13.989 22.0475 15.4208 22.1341C16.406 22.1953 17.2624 21.92 17.9484 21.0689C18.418 20.4878 18.9474 19.9577 19.4446 19.4022C20.1813 18.5764 20.1859 17.5774 19.4538 16.7619C18.5791 15.7884 17.6997 14.82 16.8204 13.8516Z" fill="#C7D0D9"/>
</svg>
