<svg width="31" height="30" viewBox="0 0 31 30" fill="none" xmlns="http://www.w3.org/2000/svg">
<path d="M25.465 18.7671C24.3819 17.6968 23.0298 17.6968 21.9537 18.7671C21.1328 19.582 20.3119 20.3969 19.5047 21.2256C19.284 21.4535 19.0977 21.5018 18.8287 21.3499C18.2975 21.0598 17.7318 20.825 17.2214 20.5074C14.8414 19.0088 12.8478 17.0822 11.0818 14.9138C10.2057 13.8365 9.42615 12.6832 8.88118 11.3849C8.7708 11.1225 8.7915 10.9499 9.00535 10.7358C9.82626 9.94164 10.6265 9.12677 11.4336 8.31189C12.558 7.17936 12.558 5.85346 11.4267 4.71402C10.7851 4.06488 10.1436 3.42955 9.50203 2.78042C8.83978 2.11747 8.18443 1.44761 7.51529 0.79157C6.43224 -0.265005 5.08015 -0.265005 4.00399 0.798476C3.17618 1.61335 2.38286 2.44894 1.54126 3.25C0.761734 3.98892 0.368524 4.89356 0.285743 5.95014C0.154673 7.66966 0.575477 9.29251 1.16874 10.8739C2.38286 14.1472 4.23164 17.0545 6.47363 19.7201C9.50203 23.3249 13.1168 26.177 17.3455 28.2349C19.2495 29.1602 21.2225 29.8715 23.3679 29.9889C24.8441 30.0718 26.1272 29.6989 27.1551 28.5456C27.8587 27.7584 28.652 27.0402 29.3971 26.2875C30.5008 25.1687 30.5077 23.8152 29.4109 22.7103C28.1002 21.3913 26.7826 20.0792 25.465 18.7671Z" fill="#373C4F"/>
</svg>
