<svg width="80" height="80" viewBox="0 0 80 80" fill="none" xmlns="http://www.w3.org/2000/svg">
<circle cx="40" cy="40" r="39" stroke="#1B3F76" stroke-width="2"/>
<path d="M55.8833 26.5835C51.988 22.6802 46.9136 20.3886 41.4649 20.0394V17.9297H43.6133C44.4223 17.9297 45.0781 17.2738 45.0781 16.4648C45.0781 15.6559 44.4223 15 43.6133 15H36.3867C35.5778 15 34.9219 15.6559 34.9219 16.4648C34.9219 17.2738 35.5778 17.9297 36.3867 17.9297H38.5352V20.0394C34.7991 20.2788 31.2395 21.4316 28.115 23.3913L26.7235 21.997C26.0462 21.3184 25.1453 20.9447 24.1866 20.9447C23.228 20.9447 22.3271 21.3185 21.6499 21.997L19.5336 24.1179C18.1406 25.5137 18.1406 27.785 19.5336 29.1809L20.9346 30.5848C18.7234 34.1229 17.5392 38.2179 17.5392 42.4955C17.5392 48.5061 19.8751 54.1571 24.1167 58.4075C28.3591 62.6587 33.9999 65 40 65C46.0001 65 51.6409 62.6587 55.8833 58.4075C60.1249 54.1571 62.4609 48.5061 62.4609 42.4955C62.4609 36.485 60.1249 30.8339 55.8833 26.5835ZM21.6073 26.1874L23.7238 24.0666C23.8906 23.8995 24.0854 23.8745 24.1867 23.8745C24.2881 23.8745 24.483 23.8994 24.6498 24.0666L25.7114 25.1303C25.1609 25.5866 24.6284 26.0709 24.1168 26.5836C23.6067 27.0948 23.1247 27.6268 22.6705 28.1768L21.6073 27.1114C21.3531 26.8566 21.3531 26.4421 21.6073 26.1874ZM40 62.0703C29.2305 62.0703 20.4689 53.2891 20.4689 42.4955C20.4689 31.702 29.2305 22.9207 40 22.9207C50.7696 22.9207 59.5312 31.7019 59.5312 42.4955C59.5312 53.2892 50.7696 62.0703 40 62.0703Z" fill="#1B3F76"/>
<path d="M40 25.667C30.7381 25.667 23.203 33.2164 23.203 42.4959C23.203 51.7754 30.7381 59.3248 40 59.3248C49.2619 59.3248 56.797 51.7754 56.797 42.4959C56.797 33.2164 49.2619 25.667 40 25.667ZM41.4648 56.3176V54.6054C41.4648 53.7964 40.809 53.1405 40 53.1405C39.191 53.1405 38.5351 53.7964 38.5351 54.6054V56.3176C32.0551 55.6325 26.8916 50.4561 26.2096 43.9607H27.8906C28.6996 43.9607 29.3554 43.3049 29.3554 42.4959C29.3554 41.6869 28.6996 41.031 27.8906 41.031H26.2097C26.8916 34.5356 32.0551 29.3593 38.5351 28.6742V30.3864C38.5351 31.1954 39.191 31.8513 40 31.8513C40.809 31.8513 41.4648 31.1954 41.4648 30.3864V28.6742C47.9449 29.3593 53.1084 34.5356 53.7903 41.031H52.1094C51.3004 41.031 50.6445 41.6869 50.6445 42.4959C50.6445 43.3049 51.3004 43.9607 52.1094 43.9607H53.7902C53.1084 50.4561 47.9449 55.6325 41.4648 56.3176Z" fill="#1B3F76"/>
<path d="M43.6134 41.6497H41.5468V35.7252C41.5468 34.9162 40.8909 34.2603 40.0819 34.2603C39.273 34.2603 38.6171 34.9162 38.6171 35.7252V43.1145C38.6171 43.9235 39.273 44.5794 40.0819 44.5794H43.6134C44.4224 44.5794 45.0782 43.9235 45.0782 43.1145C45.0782 42.3055 44.4224 41.6497 43.6134 41.6497Z" fill="#1B3F76"/>
</svg>
