<svg width="38" height="31" viewBox="0 0 38 31" fill="none" xmlns="http://www.w3.org/2000/svg">
<path d="M37.5862 4.05681C37.3799 3.81196 37.0367 3.73279 36.744 3.86263C36.3059 4.05688 35.8601 4.22788 35.4078 4.37513C35.994 3.63232 36.4497 2.785 36.7468 1.86838C36.8391 1.58359 36.7455 1.27138 36.5117 1.08439C36.2779 0.897414 35.9527 0.874743 35.6953 1.02725C34.4382 1.77208 33.087 2.30834 31.6734 2.624C30.1969 1.20502 28.2038 0.398438 26.1426 0.398438C21.7418 0.398438 18.1616 3.97864 18.1616 8.37939C18.1616 8.66821 18.1774 8.95898 18.2086 9.24974C17.0772 9.142 15.9571 8.93861 14.868 8.64274C14.4845 8.53852 14.089 8.76502 13.9848 9.14862C13.8806 9.53223 14.1071 9.92764 14.4907 10.0319C15.9655 10.4325 17.4929 10.675 19.0304 10.7524C19.2557 10.7638 19.4719 10.6694 19.6169 10.4975C19.7618 10.3256 19.8181 10.0958 19.769 9.87639C19.6576 9.37886 19.6011 8.87513 19.6011 8.37939C19.6011 4.77234 22.5356 1.83786 26.1426 1.83786C27.9451 1.83786 29.6834 2.58974 30.9118 3.9007C31.081 4.08135 31.3312 4.16246 31.5743 4.1151C32.5625 3.92308 33.5246 3.63448 34.4519 3.25274C33.9321 3.97425 33.2682 4.5881 32.4948 5.05109C32.2034 5.22547 32.0736 5.57972 32.1832 5.90099C32.2928 6.22227 32.6119 6.42336 32.9492 6.38335C33.6139 6.30446 34.2724 6.1814 34.9209 6.01507C34.331 6.63229 33.6839 7.19489 32.9837 7.6984C32.7908 7.83716 32.6787 8.06215 32.6843 8.29965L32.7062 9.23175C32.7017 19.0297 25.2435 29.1614 12.7653 29.1614C9.91374 29.1614 7.11975 28.5551 4.54988 27.3913C7.57511 27.1626 10.4141 26.0651 12.8215 24.1826C13.0612 23.9951 13.1571 23.6772 13.061 23.3883C12.9648 23.0996 12.6974 22.9025 12.3932 22.8961C9.98399 22.8458 7.8286 21.4867 6.72751 19.4139C6.80603 19.416 6.88512 19.4171 6.96465 19.4171C7.67861 19.4171 8.38371 19.3262 9.06038 19.1469C9.38368 19.0613 9.60535 18.7643 9.59549 18.43C9.58563 18.0957 9.34683 17.8123 9.01907 17.7459C6.33447 17.2018 4.29992 15.03 3.86118 12.3896C4.65467 12.6796 5.47708 12.8367 6.31842 12.8582C6.63891 12.8659 6.92622 12.6616 7.02302 12.3559C7.11968 12.0501 7.00251 11.7173 6.73564 11.5396C4.91347 10.3266 3.82563 8.2931 3.82563 6.10014C3.82563 5.2891 3.97432 4.49094 4.26048 3.74726C5.43383 5.04281 6.75853 6.18895 8.21019 7.16337C8.54025 7.38497 8.98733 7.29695 9.20886 6.96696C9.43046 6.63697 9.34244 6.18982 9.01245 5.96829C7.37014 4.8659 5.90193 3.52782 4.64848 1.99123C4.4995 1.80857 4.27027 1.71076 4.0355 1.72854C3.80051 1.74667 3.58928 1.87867 3.47002 2.08199C2.76103 3.29074 2.38628 4.68022 2.38628 6.10021C2.38628 7.85487 2.95715 9.52575 3.97742 10.8859C3.78324 10.801 3.59108 10.7062 3.40143 10.6015C3.17847 10.4784 2.90706 10.4823 2.68769 10.6117C2.4684 10.7412 2.33381 10.9768 2.33381 11.2315V11.3201C2.33381 13.9828 3.66262 16.4017 5.73949 17.8655C5.73517 17.8647 5.73085 17.8639 5.72653 17.863C5.47715 17.816 5.22122 17.9037 5.05317 18.0941C4.88519 18.2845 4.82992 18.5493 4.90779 18.791C5.75223 21.4124 7.86998 23.3703 10.4526 24.0634C8.31598 25.3331 5.89401 25.9969 3.35487 25.9969C2.80378 25.9969 2.26436 25.9666 1.70565 25.9045C1.37357 25.8676 1.05927 26.0644 0.947647 26.3795C0.835948 26.6948 0.95614 27.0453 1.23769 27.2258C4.68288 29.4338 8.66907 30.6009 12.7654 30.6009C16.06 30.6009 19.1435 29.9464 21.9302 28.6552C24.4865 27.4711 26.7452 25.7788 28.6437 23.6253C32.1402 19.6591 34.1456 14.4096 34.1456 9.22311C34.1456 9.2175 34.1456 9.21181 34.1454 9.2062L34.1321 8.6395C35.5029 7.60167 36.68 6.35175 37.6347 4.91974C37.8123 4.65337 37.7925 4.30165 37.5862 4.05681Z" fill="white"/>
</svg>
