<svg width="38" height="37" viewBox="0 0 38 37" fill="none" xmlns="http://www.w3.org/2000/svg">
<g clip-path="url(#clip0)">
<path d="M32.012 24.7437L31.6468 24.1472C30.9332 22.9814 30.0694 21.9125 29.0796 20.97L27.8586 19.8074C27.7426 19.6968 27.7252 19.5213 27.8173 19.3901L29.4844 17.0145C29.7249 16.6719 29.9467 16.3111 30.1439 15.9422L31.5685 13.2766C31.8168 12.8121 31.8035 12.2649 31.5329 11.8129C31.2624 11.361 30.7864 11.0908 30.2597 11.0902L27.1761 11.0867C27.1754 11.0867 27.1748 11.0867 27.1742 11.0867C26.5282 11.0867 25.9431 11.4688 25.6835 12.0604L25.3569 12.8045C24.5236 14.7032 23.3862 16.4344 21.9751 17.9523V12.5194C21.9751 11.729 21.3321 11.0859 20.5417 11.0859H16.1745C15.4573 11.0859 14.874 11.6693 14.874 12.3865C14.874 12.6603 14.9584 12.9226 15.1181 13.1449L15.4237 13.5706C15.7233 13.9878 15.8816 14.4799 15.8816 14.9936V18.9635C15.343 18.338 14.6873 17.4886 14.1322 16.512C13.2821 15.0164 12.6728 13.2725 12.3853 12.366C12.1424 11.6004 11.4397 11.0859 10.6366 11.0859H7.51343C7.07268 11.0859 6.66733 11.2875 6.40104 11.6388C6.13496 11.9903 6.05083 12.4352 6.17037 12.8596L6.75298 14.9273C7.11003 16.1948 7.60087 17.4287 8.21184 18.5948C8.39623 18.9468 8.83108 19.0827 9.18331 18.8983C9.53546 18.7138 9.67127 18.2788 9.48681 17.9267C8.9222 16.849 8.46856 15.7085 8.1385 14.537L7.57173 12.5254H10.6366C10.8096 12.5254 10.9609 12.6362 11.0133 12.8012C11.3179 13.7615 11.9656 15.6132 12.8809 17.2232C13.6319 18.5443 14.5429 19.6449 15.1751 20.3355C15.5215 20.7139 16.0543 20.8385 16.5327 20.6525C17.0116 20.4665 17.321 20.0143 17.321 19.5006V14.9936C17.321 14.1768 17.0692 13.3944 16.593 12.7311L16.4452 12.5254H20.5357V18.2971C20.5357 18.7194 20.7477 19.1076 21.1029 19.3359C21.458 19.5643 21.8993 19.5959 22.2835 19.4205L22.5802 19.2851C22.7169 19.2227 22.8384 19.1357 22.9413 19.0264C24.5033 17.3677 25.7594 15.469 26.6751 13.3829L27.0017 12.6387C27.0317 12.5702 27.0994 12.526 27.1742 12.526H27.1744L30.258 12.5295C30.2685 12.5295 30.2844 12.5296 30.298 12.5522C30.3116 12.5749 30.304 12.5888 30.2991 12.5981L28.8745 15.2637C28.7046 15.5816 28.5134 15.8924 28.3062 16.1876L26.6391 18.5633C26.1344 19.2824 26.2299 20.244 26.8661 20.8498L28.087 22.0124C28.9862 22.8687 29.7709 23.8398 30.4193 24.8987L30.7845 25.4953C30.7933 25.5096 30.82 25.5533 30.7867 25.6127C30.7535 25.6721 30.7022 25.6721 30.6855 25.6721H28.0233C27.6812 25.6721 27.3483 25.5314 27.1098 25.2862L24.4479 22.5492C23.8206 21.9042 23.0245 21.4612 22.1457 21.2683C21.7518 21.1817 21.3452 21.2771 21.0306 21.5301C20.7161 21.783 20.5358 22.1595 20.5358 22.5631V25.2523C20.5358 25.4838 20.3475 25.6721 20.116 25.6721C18.0531 25.6721 16.0147 24.9819 14.3761 23.7287C13.716 23.2238 13.0864 22.667 12.5048 22.0738C12.2265 21.7901 11.7709 21.7854 11.487 22.0637C11.2031 22.342 11.1986 22.7978 11.4769 23.0815C12.1061 23.7234 12.7873 24.3258 13.5016 24.872C15.3898 26.3162 17.7388 27.1116 20.1159 27.1116C21.1411 27.1116 21.9751 26.2775 21.9751 25.2523V22.7079C22.5232 22.8542 23.0189 23.1444 23.416 23.5528L26.0779 26.2899C26.5858 26.812 27.2948 27.1116 28.0233 27.1116H30.6855C31.2478 27.1116 31.7678 26.8069 32.0425 26.3163C32.3173 25.8258 32.3056 25.2232 32.012 24.7437Z" fill="white"/>
<path d="M32.818 0.0742188H5.46886C2.8496 0.0742188 0.71875 2.20507 0.71875 4.82433V32.1734C0.71875 34.7927 2.8496 36.9235 5.46886 36.9235H32.818C35.4372 36.9235 37.5681 34.7927 37.5681 32.1734V4.82433C37.5681 2.20507 35.4372 0.0742188 32.818 0.0742188ZM36.1286 32.1734C36.1286 33.9989 34.6434 35.4841 32.818 35.4841H5.46886C3.64338 35.4841 2.15818 33.9989 2.15818 32.1734V4.82433C2.15818 2.99884 3.64338 1.51364 5.46886 1.51364H32.818C34.6434 1.51364 36.1286 2.99884 36.1286 4.82433V32.1734Z" fill="white"/>
</g>
<defs>
<clipPath id="clip0">
<rect width="36.8493" height="36.8493" fill="white" transform="translate(0.71875 0.0742188)"/>
</clipPath>
</defs>
</svg>
